<svg xmlns="http://www.w3.org/2000/svg" aria-hidden="true" style="position:absolute;width:0;height:0;overflow:hidden"><defs><symbol id="icon-antenna" viewBox="0 0 32 32"><path fill="#2e2f42" d="m30.77 22.1-8.44-8.5.94-4.62c.24.1.5.14.76.14h.03a2.16 2.16 0 1 0-2.03-1.42V7.7l-4.97.6L8.97.16A.53.53 0 0 0 8.6 0a.54.54 0 0 0-.38.15l-1.5 1.5a.53.53 0 0 0 0 .76l.8.83a14.9 14.9 0 0 0 2.52 17.66l.15.1c-.03.16-.05.35-.05.55v6.18h-6.4a2.67 2.67 0 0 0-2.67 2.67v1.07c0 .3.24.53.54.53h24.53c.3 0 .53-.24.53-.53V30.4c0-1.47-1.2-2.67-2.66-2.67h-6.4V25a14.78 14.78 0 0 0 10.17-1.5l-.08.04.81.82a.53.53 0 0 0 .75 0l1.52-1.5a.53.53 0 0 0 0-.75zM23.28 6.23c.2-.19.46-.3.75-.3a1.07 1.07 0 0 1 0 2.13 1.07 1.07 0 0 1-.75-1.83zm-1.26 3.5-.6 2.95-1.17-1.18 1.77-1.76zm-.6-.9-1.92 1.92L18 9.25l3.4-.41zM24 28.8c.89 0 1.6.72 1.6 1.6v.53H2.14v-.53c0-.88.71-1.6 1.6-1.6H24zm-7.46-2.13v1.06H11.2v-1.06h5.34zM11.2 25.6v-4.05c0-1.3 1.2-2.35 2.67-2.35s2.67 1.05 2.67 2.35v4.05H11.2zm6.4-1.7v-2.35c0-1.89-1.67-3.42-3.73-3.42h-.06a3.8 3.8 0 0 0-3.21 1.78l-.01.01A13.82 13.82 0 0 1 8.35 3.96l-.04.08 18.6 18.7a13.64 13.64 0 0 1-9.4 1.15l.1.02zm11.3-.68L7.83 2.04l.75-.75 7.94 7.98 13.12 13.2-.76.75z" style="fill:var(--color1, #2e2f42)"/><path fill="#4d5ae5" d="M13.88 20.27h-.01a1.6 1.6 0 0 0 0 3.2 1.6 1.6 0 0 0 0-3.2zm.37 1.98c-.1.1-.23.15-.38.15a.53.53 0 0 1 0-1.07.53.53 0 0 1 .37.92z" style="fill:var(--color2, #4d5ae5)"/></symbol><symbol id="icon-astronaut" viewBox="0 0 32 32"><path fill="#4d5ae5" d="M31.97 4.52a.54.54 0 0 0-.42-.36l-1.92-.28-.85-1.73c-.18-.36-.78-.36-.96 0l-.85 1.73-1.91.28a.53.53 0 0 0-.3.91l1.38 1.35-.32 1.9a.53.53 0 0 0 .77.56l1.71-.9 1.71.9a.53.53 0 0 0 .77-.57v.01l-.32-1.9 1.38-1.35a.53.53 0 0 0 .13-.55zm-2.46 1.33a.53.53 0 0 0-.15.47l.19 1.12-1-.53a.52.52 0 0 0-.5 0l-1 .53.2-1.12a.53.53 0 0 0-.15-.47l-.82-.79 1.12-.16a.53.53 0 0 0 .4-.3l.5-1 .5 1c.08.16.23.27.4.3l1.12.16-.8.8zm-3.38 14.67h-1.06v1.07h1.06v-1.07zm0 2.14h-1.06v1.06h1.06v-1.06zM27.2 21.59h-1.07v1.07h1.07v-1.07zm-2.13 0H24v1.07h1.07v-1.07zm-2.67 4.8h-1.07v1.07h1.07v-1.07zm0 2.13h-1.07v1.07h1.07v-1.07zm1.07-1.06H22.4v1.06h1.07v-1.06zM21.33 27.46h-1.06v1.06h1.06v-1.06zM16 24.26h-1.07v1.06H16v-1.06zm0 2.13h-1.07v1.07H16v-1.07zm1.07-1.07H16v1.07h1.07v-1.07zm-2.14 0h-1.06v1.07h1.06v-1.07zM5.87 6.12H4.8V7.2h1.07V6.12zm0 2.14H4.8v1.06h1.07V8.26zm1.06-1.07H5.87v1.07h1.06V7.19zm-2.13 0H3.73v1.07H4.8V7.19z" style="fill:var(--color2, #4d5ae5)"/><path fill="#2e2f42" d="M24.71 14.16c-.28-.38-.7-.64-1.17-.7h-.01a1.76 1.76 0 0 0-1.34.36v-.01l-1.26.96-1.9 1.41-1.35-.54A6.94 6.94 0 0 0 14.83 2.4a6.96 6.96 0 0 0-6.96 6.93c0 1.39.41 2.68 1.12 3.76l-2.77-.02H6.2c-.06 0-.1.01-.16.03l-.04.02H6l-3.24 1.6-1.9.91a1.78 1.78 0 0 0-.66 2.34v-.01a1.78 1.78 0 0 0 2.45.76l1.38-.74 2.26-1.17h1.36L2.2 22.2.86 23.55a1.65 1.65 0 0 0 0 2.36 1.67 1.67 0 0 0 2.36 0l1.31-1.32 1.74-1.3.9.9-3.1 3.09a1.66 1.66 0 0 0 1.18 2.84c.43 0 .85-.16 1.18-.48l3.48-3.47 1.01-1 .02-.02 5.17-5.66 3.47.5h.07c.07 0 .13-.01.2-.04h-.01l.05-.02.06-.03 3.21-2.13.03-.03.04-.03 1.27-1.19a1.78 1.78 0 0 0 .21-2.36zM2.14 17.77a.71.71 0 0 1-.56.05.72.72 0 0 1-.21-1.26l1.31-.63.32.93.13.38-1 .53zm3.5-1.83-1.55.8-.26-.74-.18-.54 2.03-1-.04 1.48zm15.1-6.62c0 .92-.22 1.79-.6 2.56l-4.18-1.9a1.86 1.86 0 0 0-.79-1.38l1.46-4.87a5.88 5.88 0 0 1 4.1 5.6zm-11.8 0a5.89 5.89 0 0 1 6.65-5.81l-1.44 4.75h-.05c-1.04 0-1.87.83-1.88 1.86a1.87 1.87 0 0 0 3.5.92l3.86 1.76A5.9 5.9 0 0 1 8.94 9.32zm5.96.8a.8.8 0 0 1-1.61 0c0-.44.36-.8.8-.8s.81.36.81.8zM2.46 25.15a.6.6 0 0 1-.85 0 .6.6 0 0 1 0-.85l.96-.96.85.85-.95.96zm3.22 3.73a.6.6 0 0 1-.86 0 .6.6 0 0 1 0-.84l.97-.96.85.85-.96.95zm3.48-3.47-1.77 1.76-.85-.85 1.77-1.75c.04-.04.06-.1.09-.14l.02-.04c.02-.04.02-.08.03-.13l.01-.07c0-.04 0-.07-.02-.1l-.01-.1a.51.51 0 0 0-.1-.14l-.02-.04-1.61-1.6-.06-.04a.5.5 0 0 0-.08-.05.48.48 0 0 0-.1-.04.5.5 0 0 0-.1-.02h-.02l-.08.01a.59.59 0 0 0-.1.02.5.5 0 0 0-.1.05l-.05.02-1.78 1.33-.9-.9 2.4-2.39 4.36 4.3-.93.91zm6.82-7.02h-.07l-.1.01a.55.55 0 0 0-.27.13l-.03.03-4.7 5.15-4.33-4.26 2.84-2.82a.53.53 0 0 0-.38-.9H6.72l.03-1.6 3.1.02a6.93 6.93 0 0 0 4.98 2.1 7 7 0 0 0 1.28-.12c.04.04.08.07.13.09l2.41.96.15.76.18.88-3-.43zm4.04.18-.31-1.55 1.44-1.08.95 1.25-2.08 1.38zm3.75-2.83-.83.79-.94-1.24.84-.64a.73.73 0 0 1 1.02.14c.22.3.18.7-.09.95z" style="fill:var(--color1, #2e2f42)"/><path fill="#2e2f42" d="m13.6 18.54-2.14-2.13a.53.53 0 0 0-.75 0l-2.15 2.13a.53.53 0 0 0 0 .76l2.15 2.13a.53.53 0 0 0 .75 0l2.14-2.13a.53.53 0 0 0 0-.76zm-2.52 1.76L9.7 18.92l1.38-1.38 1.39 1.38-1.39 1.38zm6.08-15.23-.25 1.04c.07.01 1.73.45 1.73 2.14h1.07c0-2.01-1.66-2.96-2.54-3.18zm2.55 4.25h-1.07v1.07h1.07V9.32z" style="fill:var(--color1, #2e2f42)"/></symbol><symbol id="icon-clock" viewBox="0 0 32 32"><path fill="#2e2f42" d="M31.3 15.3a15.3 15.3 0 1 0-20.07 14.55l.1.03a.67.67 0 0 0 .53-.06c.14-.08.24-.2.29-.36l3.87-12.25a1.91 1.91 0 1 0-.86-3.63h.01l-5.1-5.1a.64.64 0 1 0-.9.9l5.1 5.1a1.87 1.87 0 0 0 .53 2.3v.01l-3.68 11.67a14.04 14.04 0 1 1 10.66-.38l-.09.03-.4-1.87a.64.64 0 0 0-1.04-.34l-3.84 3.42a.64.64 0 0 0 .23 1.08l4.9 1.57a.64.64 0 0 0 .82-.74l-.39-1.84a15.29 15.29 0 0 0 9.33-14.06v-.03zM16 14.66a.64.64 0 0 1 0 1.28.64.64 0 0 1 0-1.28zm2.1 14.87 2.18-1.95.6 2.84-2.79-.9z" style="fill:var(--color1, #2e2f42)"/><path fill="#4d5ae5" d="M15.35 3.19v1.27a.64.64 0 1 0 1.28 0V3.19a.64.64 0 0 0-1.27 0zM3.88 14.66a.64.64 0 1 0 0 1.28h1.27a.64.64 0 1 0 0-1.28H3.88zm24.23 1.28a.64.64 0 1 0 0-1.28h-1.28a.64.64 0 0 0 0 1.28h1.28z" style="fill:var(--color2, #4d5ae5)"/></symbol><symbol id="icon-diagram" viewBox="0 0 32 32"><path fill="#4d5ae5" d="M14.93 14.96h1.06v4.8h-1.06v-4.8zm4.26 2.14h1.07v2.66h-1.07V17.1zm-8.53 1.6h1.07v1.06h-1.07V18.7zm-3.2-.54h1.07v1.6H7.46v-1.6z" style="fill:var(--color2, #4d5ae5)"/><path fill="#2e2f42" d="M1.6 28.3h25.59c.88 0 1.6-.73 1.6-1.6v-2.14c0-.88-.72-1.6-1.6-1.6h-.54V9.66l3.03-2.86a1.6 1.6 0 1 0-.74-.75v-.01L26.64 8.2V6.97c0-.88-.71-1.6-1.6-1.6H3.73c-.88 0-1.6.72-1.6 1.6v16H1.6c-.89 0-1.6.7-1.6 1.59v2.13c0 .89.71 1.6 1.6 1.6zM30.38 4.83a.53.53 0 0 1 0 1.06.53.53 0 0 1 0-1.06zM3.2 6.97c0-.3.24-.53.53-.53h21.32c.3 0 .54.23.54.53V9.2l-1.07 1.01V8.03c0-.29-.24-.53-.53-.53H4.79c-.29 0-.53.24-.53.53v13.33c0 .3.24.54.54.54h19.19c.3 0 .53-.24.53-.54V11.7l1.07-1.01v12.28H3.19v-16zM8 13.9a1.6 1.6 0 1 0 1.1 2.75l1.86.93c.21.1.47.05.63-.13l3.94-4.43 3.87 2.9c.21.16.5.14.69-.04l3.36-3.18v8.13H5.33V8.57h18.12v2.66l-3.77 3.57-3.9-2.93a.53.53 0 0 0-.72.07l-4 4.5-1.49-.75c.02-.06.02-.13.03-.2 0-.88-.72-1.6-1.6-1.6zm.53 1.6a.53.53 0 0 1-1.07 0 .53.53 0 0 1 1.07 0zm3.2 8.53h5.33v.53c0 .3-.24.53-.53.53h-4.27a.53.53 0 0 1-.53-.53v-.53zm-10.66.53c0-.3.24-.53.53-.53h9.06v.53c0 .88.72 1.6 1.6 1.6h4.26c.89 0 1.6-.72 1.6-1.6v-.53h9.06c.3 0 .54.23.54.53v2.13c0 .3-.24.53-.54.53H1.6a.53.53 0 0 1-.53-.53v-2.13z" style="fill:var(--color1, #2e2f42)"/></symbol><symbol id="icon-Logo6" viewBox="0 0 59 32"><path d="M30.59 15.68a1.67 1.67 0 0 1-.35-1.14V12.9c0-.5.12-.89.35-1.15s.62-.4 1.18-.4c.53 0 .9.12 1.12.34.24.29.36.64.33 1v.38h-.94v-.4c0-.12 0-.25-.03-.38a.37.37 0 0 0-.13-.23.54.54 0 0 0-.34-.09h-.04a.57.57 0 0 0-.32.1.44.44 0 0 0-.15.25c-.03.12-.04.25-.04.38v2.11c0 .18.04.34.12.49.05.05.11.1.18.13.08.03.16.04.25.03a.5.5 0 0 0 .33-.09.4.4 0 0 0 .14-.24c.02-.13.03-.27.03-.4v-.4h.94V14.77c0 .36-.12.68-.33.94-.21.24-.58.37-1.12.37s-.95-.13-1.18-.4zm3.91.02c-.24-.26-.36-.63-.36-1.13v-1.73c0-.5.12-.87.36-1.12s.63-.37 1.2-.37c.54 0 .94.12 1.18.37.23.25.35.63.35 1.12v1.73c0 .5-.12.87-.36 1.13s-.63.38-1.18.38-.95-.13-1.19-.38zm1.63-.42a.97.97 0 0 0 .11-.51v-2.13a.94.94 0 0 0-.11-.5.45.45 0 0 0-.19-.14.52.52 0 0 0-.25-.03.52.52 0 0 0-.25.03.45.45 0 0 0-.19.14.91.91 0 0 0-.11.5v2.14c-.02.17.02.35.1.51a.65.65 0 0 0 .69.13.6.6 0 0 0 .2-.13zm2.23-3.88h1.02l.76 3.2.78-3.2h.98l.1 4.62h-.73l-.08-3.21-.75 3.21h-.58l-.78-3.22-.07 3.22h-.74l.1-4.62zm4.77 0h1.58c.9 0 1.36.44 1.36 1.31 0 .84-.48 1.26-1.43 1.26h-.54v2.05h-.97V11.4zm1.35 1.97a.76.76 0 0 0 .53-.14.74.74 0 0 0 .14-.53v-.05c0-.13-.01-.25-.05-.37a.34.34 0 0 0-.07-.12.4.4 0 0 0-.12-.1 1 1 0 0 0-.38-.07h-.43v1.39h.38zm3-1.97h1.04l1.07 4.62h-.9l-.22-1.06h-.93l-.22 1.06h-.92l1.07-4.62zm.89 3.02L48 12.48l-.36 1.94h.73zm2.09-3.02h.68l1.3 2.63V11.4h.8v4.62h-.64l-1.31-2.75v2.75h-.84V11.4zm4.68 2.86-1.08-2.86h.9l.67 1.84.62-1.84h.9l-1.08 2.86v1.76h-.93v-1.76zm-23.05 3.78v.24h-.8v1.88h-.33v-1.88h-.8v-.24h1.93zm2.49 2.12h-.26c-.03 0-.05 0-.07-.02a.12.12 0 0 1-.04-.05l-.23-.5h-1.1l-.23.5c-.01.03-.02.05-.04.06a.12.12 0 0 1-.06.02h-.27l.97-2.12h.34l.99 2.11zm-1.61-.79h.91l-.38-.86a1.42 1.42 0 0 1-.07-.19l-.04.1-.04.1-.38.85zm3.29.58h.18a1.15 1.15 0 0 0 .3-.06l.12-.05v-.48H36.45l-.03-.02-.01-.01v-.19h.75v.82c-.12.07-.26.13-.4.17h-.01a1.82 1.82 0 0 1-.53.06h-.01c-.17 0-.34-.03-.49-.09h.01a1.2 1.2 0 0 1-.39-.22c-.1-.09-.19-.2-.25-.33a1.05 1.05 0 0 1-.09-.43v-.02c0-.16.03-.3.1-.44h-.01a.98.98 0 0 1 .25-.33c.11-.1.24-.17.39-.22a1.64 1.64 0 0 1 .79-.06 1.27 1.27 0 0 1 .6.25l-.1.13-.03.03a.1.1 0 0 1-.04 0l-.06-.01a1.28 1.28 0 0 1-.1-.05.8.8 0 0 0-.12-.05h-.01a1.2 1.2 0 0 0-.17-.05 1.42 1.42 0 0 0-.24-.02h-.02c-.14 0-.26.02-.38.06-.1.04-.2.1-.28.17a.74.74 0 0 0-.18.26.98.98 0 0 0 0 .71c.04.1.11.19.2.26a.84.84 0 0 0 .67.21zm3.1-.03h1.06v.24h-1.39v-2.12h.34l-.01 1.88zm2.16.24h-.33v-2.12h.33v2.12zm1.24-2.1c.02 0 .04.02.05.03l1.42 1.6v-.04a.6.6 0 0 1 0-.04v-1.58h.3v2.13H44.35l-.07-.01a.19.19 0 0 1-.05-.04l-1.42-1.6v1.65h-.27v-2.12h.17l.05.01zm4.21-.02v.24H45.8v.7h.96v.22h-.96v.72h1.18v.24h-1.52v-2.12h1.52zM12.11 4.94l14.77 3.63v12.68l-14.77-3.62V4.95zm-.95-1.07v14.38l16.67 4.08V7.95L11.16 3.87z"/><path d="M20.1 29.01 3.43 24.92V10.54l16.67 4.09V29z"/><path d="m11.44 4.79 14.58 3.57-6.2 5.35-14.58-3.58 6.2-5.35zm-.28-.92-7.73 6.67 16.67 4.09 7.73-6.68-16.67-4.08zm9.87 24.33 6.8-5.87-6.8-1.66v7.53z"/></symbol><symbol id="icon-Logo1" viewBox="0 0 59 32"><path d="m21.71 4 4 3.81H18.3v18.51H37.7v-7.08l4 3.82V4h-20zm15.83 14.8L26.18 7.98h11.36V18.8zM34 23.6H21.36V11.16h.9v11.61H34v.84zm-10.13 6.14-.47-.97h-.39l.69 1.28v.75h.35v-.75l.68-1.28h-.38l-.48.97zm1.74-.97h.08l.77 2.03h-.37l-.16-.47h-.79l-.16.47h-.37l.77-2.03h.23zm-.37 1.28h.6l-.3-.86-.3.86zm2.45-.34-.03-.04-.01-.02a1.04 1.04 0 0 1-.12-.19.55.55 0 0 1 .02-.47c.04-.09.1-.15.18-.18a.6.6 0 0 1 .29-.07c.1 0 .19.02.26.06a.44.44 0 0 1 .2.57.51.51 0 0 1-.1.14c-.04.05-.08.09-.13.12l-.15.11.4.47a.8.8 0 0 0 .1-.36v-.02h.28c0 .1 0 .2-.03.28a.87.87 0 0 1-.15.34l.3.35h-.39l-.11-.14a.79.79 0 0 1-.2.12h-.01c-.1.03-.2.05-.31.05a.78.78 0 0 1-.36-.07.55.55 0 0 1-.22-.2.55.55 0 0 1-.09-.3c0-.09.02-.16.06-.22a.72.72 0 0 1 .14-.18c.05-.05.11-.1.19-.15zm.17.2-.04.03a.51.51 0 0 0-.11.12.33.33 0 0 0-.02.35.3.3 0 0 0 .11.1v.01c.05.03.11.04.17.04H28a.53.53 0 0 0 .32-.11l-.45-.53zm.08-.37.13-.08c.05-.03.09-.07.12-.11a.25.25 0 0 0 .04-.14c0-.12-.1-.2-.2-.2h-.01a.2.2 0 0 0-.2.12.29.29 0 0 0 .01.25c.02.04.05.09.09.13l.02.03zm3.55.6h-.34c-.01.08-.04.16-.07.23a.32.32 0 0 1-.14.13.52.52 0 0 1-.22.05h-.03a.4.4 0 0 1-.34-.19.68.68 0 0 1-.09-.2v-.01a1.32 1.32 0 0 1-.03-.27V29.71c0-.1.01-.2.03-.29a.64.64 0 0 1 .1-.21.4.4 0 0 1 .14-.13.46.46 0 0 1 .2-.05h.01c.1 0 .18.02.24.05s.1.08.13.15c.03.06.06.13.06.22h.35a.86.86 0 0 0-.11-.36.65.65 0 0 0-.26-.25.85.85 0 0 0-.39-.09h-.02c-.13 0-.24.03-.35.07s-.19.1-.26.2a.87.87 0 0 0-.16.29c-.04.12-.06.26-.06.4v.17c0 .15.02.28.05.4s.1.22.17.3a.75.75 0 0 0 .6.26c.16 0 .3-.03.41-.09s.2-.14.27-.24a.8.8 0 0 0 .11-.36zm1.94-.3v-.11c0-.15-.02-.3-.06-.41a.9.9 0 0 0-.17-.31.74.74 0 0 0-.26-.2.83.83 0 0 0-.35-.07.83.83 0 0 0-.34.07c-.1.04-.2.11-.27.2a.95.95 0 0 0-.17.3c-.04.12-.06.26-.06.4v.13c0 .15.02.3.06.41.04.12.1.23.17.31a.78.78 0 0 0 .61.27c.13 0 .24-.03.34-.07.1-.05.2-.11.27-.2.07-.08.13-.19.17-.3s.06-.27.06-.42zm-.35-.11v.11c0 .11 0 .21-.03.3a.66.66 0 0 1-.1.23c-.03.05-.09.1-.15.13a.46.46 0 0 1-.2.04h-.02a.45.45 0 0 1-.2-.04.45.45 0 0 1-.15-.13.66.66 0 0 1-.1-.22 1.17 1.17 0 0 1-.03-.3v-.12c0-.12 0-.22.03-.3s.06-.16.1-.22c.04-.06.09-.1.15-.13a.45.45 0 0 1 .2-.05h.01c.08 0 .15.01.2.04s.12.08.16.14c.05.06.08.13.1.22.02.08.03.18.03.3z"/></symbol><symbol id="icon-Logo2" viewBox="0 0 59 32"><path d="M28.64 3.4h-.08c-.12-.02-.24-.02-.36-.02h-.26c-.23 0-.46 0-.69.02h-.05c-2.2.12-4.26.68-6.1 1.57l.09-.04-.25.12V17.7l.58-.2a19.1 19.1 0 0 1 6.22-1.1l.01.01v1.66l-.6.02h-.05c-1.3.07-2.52.27-3.7.58l.14-.03c-1.61.4-3.02.97-4.34 1.7l.1-.05V4.06a16.64 16.64 0 0 1 4.33-1.78l.12-.03a16.6 16.6 0 0 1 4.18-.54h.25a12.1 12.1 0 0 1 2.93.37v1.64c-.58-.14-1.27-.25-1.98-.3h-.08l-.41-.03zm2.88 1.66a18 18 0 0 0 5.65-.55l-.13.03c1.61-.41 3.02-.98 4.33-1.7l-.09.04v15.94a16.63 16.63 0 0 1-4.33 1.78l-.12.03c-1.26.34-2.7.53-4.19.54h-.1c-1.1 0-2.16-.14-3.17-.4l.09.03V4.75a13.3 13.3 0 0 0 2.05.31zm8.1.13-.57.2a19.1 19.1 0 0 1-6.4 1.1h-.01l-1.06-.04-.46-.03v13.01l.4.04a15.38 15.38 0 0 0 5.02-.46l-.12.01a15.8 15.8 0 0 0 3.06-1.1l-.1.04.25-.12V5.2zM20.42 25.84a.85.85 0 0 0-.61-.27h-.05a.97.97 0 0 0-.36.08.84.84 0 0 0-.47.47.92.92 0 0 0-.06.37v2.16a.87.87 0 0 0 .3.74c.08.07.19.13.3.15.1.03.2.05.32.05s.24-.03.35-.08a.92.92 0 0 0 .55-.83v-.25h-.57V28.64c0 .07-.01.13-.03.18a.34.34 0 0 1-.09.12.4.4 0 0 1-.23.09h-.04a.29.29 0 0 1-.23-.12.5.5 0 0 1-.07-.27V26.6a.7.7 0 0 1 .07-.33.3.3 0 0 1 .24-.13h.04c.1 0 .2.05.25.12.06.08.1.18.1.28V26.74h.55v-.23a1 1 0 0 0-.07-.38v.01a.9.9 0 0 0-.19-.3zm3.37-.03a.98.98 0 0 0-.98-.18.9.9 0 0 0-.52.48 1 1 0 0 0-.09.42v2.08c0 .15.03.3.09.43.05.11.12.21.22.29a.9.9 0 0 0 .3.18.98.98 0 0 0 .98-.18.9.9 0 0 0 .3-.72v-2.09c0-.15-.04-.29-.1-.41H24a.95.95 0 0 0-.21-.3zm-.27 2.8v.04c0 .1-.04.2-.11.27a.42.42 0 0 1-.53 0 .37.37 0 0 1-.12-.27V26.5c0-.1.05-.2.12-.27a.42.42 0 0 1 .53 0c.07.07.11.17.11.27v2.11zm4.69.93v-3.93h-.55l-.71 2.08h-.01l-.72-2.08h-.54v3.93h.56v-2.4h.01l.55 1.7h.28l.56-1.7v2.4h.57zm3.2-3.66a.78.78 0 0 0-.32-.21 1.22 1.22 0 0 0-.39-.06h-.86v3.93h.57v-1.53h.28c.18 0 .35-.03.51-.11a.82.82 0 0 0 .3-.3c.07-.1.12-.22.14-.35.02-.12.03-.26.03-.4v-.04c0-.2-.02-.38-.06-.56a.84.84 0 0 0-.2-.37zm-.3 1.2a.5.5 0 0 1-.05.21.32.32 0 0 1-.14.13.56.56 0 0 1-.24.05h-.28v-1.33h.31c.09 0 .16.01.23.05.06.03.1.08.13.14.03.07.05.14.05.22v.53zm2.95-1.47h-.46l-.87 3.93h.57l.16-.84h.77l.16.84h.56l-.89-3.93zm-.52 2.55.28-1.43h.01l.27 1.43h-.56zm4.15-.18h-.01l-.85-2.37h-.54v3.93h.56v-2.36h.01l.86 2.36h.53v-3.93h-.56v2.37zm3.42-2.37-.45 1.56-.46-1.56h-.6l.78 2.27v1.66h.56v-1.66l.77-2.27h-.6zm-22.25 5.04h.27v.76h.18v-.76h.27v-.15h-.72v.15zm2.27-.15-.35.91h.2l.07-.2h.36l.08.2h.2l-.36-.91h-.2zm-.03.55.12-.34.13.34h-.25zm2.28.02h.2v.12a.34.34 0 0 1-.21.08h-.01a.23.23 0 0 1-.18-.09.38.38 0 0 1-.07-.21v-.03c0-.2.09-.3.26-.3h.02a.2.2 0 0 1 .19.14l.18-.03c-.04-.18-.17-.27-.39-.27a.46.46 0 0 0-.32.12.44.44 0 0 0-.13.35v.02c0 .12.05.24.12.32.08.09.2.14.32.14h.04c.14 0 .28-.06.37-.15v-.36h-.4v.15zm2.29-.57h-.18v.91h.64v-.15h-.46v-.76zm1.94 0h-.18v.91h.18v-.91zm1.9.6-.38-.6h-.18v.91h.17v-.6l.37.6h.19v-.91h-.17v.61zm1.71-.09h.46v-.15h-.46v-.2h.5v-.16h-.68v.91h.69v-.15h-.5V31zm4.16-.15h-.36v-.36h-.19v.91h.19v-.4h.36v.4h.18v-.91h-.18v.36zm1.72.15h.46v-.15h-.46v-.2h.5v-.16h-.68v.91h.7v-.15h-.52V31zm2.34 0c.16-.03.24-.1.24-.25a.21.21 0 0 0-.09-.2.5.5 0 0 0-.23-.06h-.42v.91h.18v-.38h.05c.04 0 .07 0 .1.02l.07.07.2.29h.22l-.12-.18a.64.64 0 0 0-.2-.22zm-.18-.13h-.14v-.23h.15a.46.46 0 0 1 .19.03c.02.02.03.05.03.08 0 .04-.01.08-.04.1a.5.5 0 0 1-.16.02h-.03zm1.95.13h.45v-.15h-.45v-.2h.49v-.16h-.68v.91h.7v-.15h-.51V31z"/></symbol><symbol id="icon-Logo3" viewBox="0 0 59 32"><path d="M21.03 28.13h.03l.02.02.13.12c-.1.1-.22.17-.35.22a1.4 1.4 0 0 1-.5.08h-.03c-.16 0-.32-.03-.46-.08a.96.96 0 0 1-.58-.54 1.06 1.06 0 0 1-.08-.4v-.03a1 1 0 0 1 .1-.42h-.01a.98.98 0 0 1 .24-.32c.11-.1.24-.17.37-.21h.01c.14-.05.3-.08.47-.08h.02c.15 0 .3.02.45.07.13.04.24.1.34.19l-.1.12-.03.03a.08.08 0 0 1-.04 0 .1.1 0 0 1-.05 0l-.06-.04-.08-.04a.88.88 0 0 0-.24-.08l-.18-.01h-.03c-.12 0-.23.02-.34.06a.73.73 0 0 0-.45.41c-.04.1-.06.2-.06.32v.02c0 .12.02.24.07.34.08.18.23.33.43.4a1.38 1.38 0 0 0 .52.04c.16-.01.3-.08.42-.17a.1.1 0 0 1 .06-.02zm3.65-.6c0 .14-.03.29-.09.42a.9.9 0 0 1-.23.33c-.11.09-.24.16-.38.2a1.52 1.52 0 0 1-.97 0h.01a1.14 1.14 0 0 1-.37-.2.95.95 0 0 1-.23-.33 1.06 1.06 0 0 1 0-.85 1 1 0 0 1 .23-.33c.1-.08.24-.15.37-.2.31-.1.65-.1.96 0 .14.05.27.12.38.21.2.18.32.44.32.72v.03zm-.33 0a.87.87 0 0 0-.06-.34.7.7 0 0 0-.43-.4 1.1 1.1 0 0 0-.71 0c-.1.03-.19.09-.26.16a.68.68 0 0 0-.17.24.98.98 0 0 0 0 .68.69.69 0 0 0 .43.41c.23.07.47.07.7 0 .1-.03.2-.09.26-.16a.7.7 0 0 0 .17-.25c.05-.1.07-.22.06-.34zm2.81.36.04.07c0-.03.02-.05.03-.07a.66.66 0 0 1 .04-.08l.81-1.25c.02-.02.03-.04.05-.04h.3v2.03h-.28V26.92l-.81 1.27a.11.11 0 0 1-.05.04.14.14 0 0 1-.07.02h-.05c-.02 0-.05 0-.07-.02a.12.12 0 0 1-.04-.04l-.84-1.28v1.63h-.27v-2.03h.3l.05.05.82 1.25.04.07zm3.04-.1v.76h-.32V26.5h.7c.14 0 .27.02.4.05.1.02.2.07.28.12.06.06.12.12.15.2.04.09.06.18.06.26v.01c0 .19-.1.35-.23.46a.81.81 0 0 1-.28.13c-.12.04-.25.05-.38.05h-.38zm0-.22h.38c.08 0 .17-.01.24-.04a.54.54 0 0 0 .18-.08.38.38 0 0 0 .15-.3v-.03c0-.05-.01-.1-.04-.15a.4.4 0 0 0-.1-.13.68.68 0 0 0-.43-.11h-.38v.84zm4.24.98h-.25c-.03 0-.05 0-.07-.02a.14.14 0 0 1-.04-.05l-.22-.49H32.8l-.23.5a.12.12 0 0 1-.1.07v-.01h-.26l.95-2.04h.33l.96 2.04zm-1.56-.76h.88l-.37-.83a1.24 1.24 0 0 1-.07-.18l-.04.1a.86.86 0 0 1-.03.09l-.37.82zm2.92-1.27.05.04 1.38 1.53v-1.58h.28v2.04h-.16l-.06-.01a.17.17 0 0 1-.05-.04l-1.38-1.54v1.58h-.28v-2.03h.16l.06.01zm4.03 1.22v.8h-.31v-.8l-.87-1.23h.28a.1.1 0 0 1 .07.02l.04.05.55.79a.8.8 0 0 1 .09.17l.04-.08a.72.72 0 0 1 .06-.1l.53-.79a.19.19 0 0 1 .04-.04.1.1 0 0 1 .07-.02h.29l-.88 1.23zM27.01 23.1l.41.03c2.13-.81 3.93-2.14 5.18-3.82s1.89-3.65 1.84-5.64l-2.35-2c.48 2.12.26 4.31-.64 6.33A11.98 11.98 0 0 1 27 23.1z"/><path d="m26.17 23 .06.01c2.15-1.3 3.78-3.14 4.7-5.25s1.06-4.4.43-6.6l-3.34-2.85c1.35 2.35 1.89 4.98 1.56 7.58s-1.5 5.06-3.41 7.11zm11.33-6.98a10.26 10.26 0 0 1-3.93 5.63c-.54.4-1.15.79-1.8 1.12l-.07.03c1.62-.4 3.1-1.12 4.34-2.1s2.2-2.18 2.82-3.52l-1.36-1.16z"/><path d="m36.97 15.7-1.93-1.65c-.04 1.88-.66 3.72-1.81 5.32s-2.78 2.92-4.72 3.8c.44 0 .87-.02 1.3-.07 1.82-.63 3.42-1.64 4.67-2.93s2.1-2.83 2.49-4.47zM26.45 7.11l-2.3-1.97c-2.06.68-3.83 1.88-5.08 3.43s-1.92 3.4-1.93 5.28c.01 2.08.83 4.1 2.33 5.74s3.6 2.8 5.97 3.3c2.11-2.2 3.35-4.9 3.53-7.75s-.7-5.65-2.52-8.03zm15.84 8.29a8.73 8.73 0 0 0-3.21-6.59 11.95 11.95 0 0 0-7.7-2.74h-.03c-1.39 0-2.72.23-3.97.65l.09-.02 14.09 12.04c.46-.98.72-2.13.73-3.34z"/></symbol><symbol id="icon-Logo4" viewBox="0 0 59 32"><path d="M13.76 12.3c-1.37 0-2.47 1-2.47 2.22 0 1.23 1.1 2.23 2.47 2.23 1.36 0 2.47-1 2.47-2.23s-1.1-2.22-2.47-2.22zm18.22-.71c0-1.71-.76-3.35-2.1-4.56a7.57 7.57 0 0 0-5.04-1.89c-1.9 0-3.71.69-5.05 1.9s-2.1 2.84-2.1 4.54V21s14.29-1.44 14.29-9.41zm-25.7 12.5c0 1.19.53 2.32 1.47 3.16s2.19 1.32 3.5 1.32c1.32 0 2.59-.48 3.52-1.32s1.45-1.97 1.46-3.16v-6.55s-9.95 1-9.95 6.55zm4.98 1.17c-.26 0-.51-.07-.73-.2-.2-.12-.37-.3-.47-.52a1.05 1.05 0 0 1-.08-.69c.06-.23.18-.44.36-.6a1.42 1.42 0 0 1 1.42-.25c.23.1.44.24.58.44a1.1 1.1 0 0 1-.16 1.48 1.4 1.4 0 0 1-.92.34zm9.09-2.1v2.43h-.5v-2.44h.5zm.97 1.03v.4H20.2v-.4h1.1zm.12-1.04v.4H20.2v-.4h1.23zm2.29 1.16v.12c0 .18-.03.35-.07.5a1.1 1.1 0 0 1-.22.38 1.02 1.02 0 0 1-.73.32h-.02c-.15 0-.29-.03-.42-.09a.95.95 0 0 1-.32-.23 1.1 1.1 0 0 1-.22-.37v-.01a1.5 1.5 0 0 1-.08-.48V24.31c0-.18.03-.35.08-.5.05-.14.12-.27.21-.37.1-.1.2-.18.33-.24.13-.05.27-.08.42-.08.15 0 .3.03.42.08.13.06.24.13.33.24.1.1.16.23.21.38.05.14.08.3.08.5zm-.5.12v-.12c0-.13-.02-.24-.04-.34a.74.74 0 0 0-.1-.25.45.45 0 0 0-.17-.15.48.48 0 0 0-.22-.05h-.01a.49.49 0 0 0-.23.05.47.47 0 0 0-.16.15.75.75 0 0 0-.1.24c-.03.1-.04.21-.04.33V24.43c0 .13.01.24.04.34.02.1.05.18.1.25s.1.12.17.15.14.05.22.05c.09 0 .16-.01.23-.05a.45.45 0 0 0 .16-.15.77.77 0 0 0 .1-.25c.03-.1.04-.2.04-.32v-.02zm2.13.52a.3.3 0 0 0-.02-.12.23.23 0 0 0-.07-.1.64.64 0 0 0-.14-.08 1.85 1.85 0 0 0-.23-.09h-.02a3.05 3.05 0 0 1-.33-.13h.02c-.1-.04-.19-.09-.27-.15a.58.58 0 0 1-.24-.47v-.02c0-.1.03-.2.07-.27.04-.08.1-.15.19-.21.08-.06.17-.11.28-.14a1.3 1.3 0 0 1 .83.05c.14.06.24.15.32.26a.7.7 0 0 1 .1.39h-.5v-.01a.38.38 0 0 0-.04-.18.3.3 0 0 0-.13-.13.47.47 0 0 0-.2-.05h-.04a.52.52 0 0 0-.2.05.3.3 0 0 0-.13.1.26.26 0 0 0-.05.14v.01c0 .04.01.08.03.11l.1.1.15.08.2.07c.14.04.26.09.36.14s.18.1.25.17a.62.62 0 0 1 .2.48v.02c0 .2-.09.37-.23.48-.08.05-.18.1-.28.13s-.23.05-.37.05a1.4 1.4 0 0 1-.35-.05 1.07 1.07 0 0 1-.33-.15.74.74 0 0 1-.22-.24.71.71 0 0 1-.09-.36h.5c0 .07.02.14.04.19.02.05.06.1.1.13.04.03.1.05.15.07l.2.02H25c.07 0 .14-.01.2-.04.1-.04.16-.13.16-.24zm1.93-1.8v2.44h-.5v-2.44h.5zm.75 0v.4h-1.98v-.4h1.98zm1.93 2.05v.39h-1.3v-.4h1.3zm-1.14-2.05v2.44h-.5v-2.44h.5zm.97 1v.38h-1.13v-.39h1.13zm.16-1v.4h-1.3v-.4h1.3zm.3 0h.9c.2 0 .35.03.49.08.13.06.24.14.31.25s.1.25.1.4a.65.65 0 0 1-.25.57.96.96 0 0 1-.27.15l-.16.09h-.8v-.4h.6c.08 0 .15-.01.22-.04.05-.03.1-.08.12-.13a.4.4 0 0 0 .05-.19v-.02a.44.44 0 0 0-.05-.2.3.3 0 0 0-.13-.12.48.48 0 0 0-.2-.05H30.76v2.05h-.51v-2.44zm1.36 2.44-.55-1.09h.53l.56 1.07v.02h-.54zm2.64-.87h-.62v-.4h.64a.5.5 0 0 0 .22-.04.3.3 0 0 0 .12-.13.49.49 0 0 0 0-.4.34.34 0 0 0-.13-.15.43.43 0 0 0-.22-.06h-.46v2.05h-.5v-2.44h.95c.19 0 .35.03.49.1a.73.73 0 0 1 .42.7c0 .16-.04.3-.1.4s-.19.21-.32.27c-.14.07-.3.1-.5.1zm2.9.48v.39h-1.3v-.4h1.3zm-1.14-2.05v2.44h-.5v-2.44h.5zm.96 1v.38h-1.12v-.39h1.13zm.17-1v.4h-1.3v-.4h1.3zm1.42 0v2.44h-.5v-2.44h.5zm.75 0v.4h-1.99v-.4h2zm1.92 2.05v.39h-1.3v-.4h1.3zm-1.13-2.05v2.44h-.5v-2.44h.5zm.96 1v.38h-1.12v-.39h1.12zm.17-1v.4h-1.3v-.4h1.3zm.3 0h.9c.2 0 .35.03.48.08s.24.14.32.25c.07.11.1.25.1.4 0 .14-.02.25-.06.34s-.1.17-.19.23a.96.96 0 0 1-.27.15l-.17.09h-.79v-.4h.61c.07 0 .14-.01.2-.04.05-.03.1-.08.13-.13a.4.4 0 0 0 .05-.19v-.02a.44.44 0 0 0-.05-.2v.01a.3.3 0 0 0-.13-.13.48.48 0 0 0-.2-.05H42.03v2.05h-.5v-2.44zm1.36 2.44-.56-1.09h.53l.57 1.07v.02h-.54zm2.1-.64c0-.04 0-.08-.02-.12a.23.23 0 0 0-.07-.1.64.64 0 0 0-.14-.08 1.8 1.8 0 0 0-.23-.09h-.02a2.9 2.9 0 0 1-.33-.13h.02a1.3 1.3 0 0 1-.27-.15.58.58 0 0 1-.24-.47v-.02c0-.1.03-.2.07-.27.05-.08.1-.16.19-.21.08-.07.17-.11.28-.14a1.3 1.3 0 0 1 .84.04c.13.07.23.16.3.27.08.11.12.24.12.39H45v-.01a.38.38 0 0 0-.05-.18.3.3 0 0 0-.13-.13.47.47 0 0 0-.2-.05h-.04a.52.52 0 0 0-.2.05.29.29 0 0 0-.13.1.26.26 0 0 0-.05.15c0 .04.01.08.03.11l.1.1.15.08.2.07c.14.04.26.09.36.14s.18.1.25.17a.62.62 0 0 1 .2.48v.02c0 .2-.09.37-.23.48-.08.05-.18.1-.28.13s-.23.04-.37.04c-.12 0-.24-.01-.35-.04a1.07 1.07 0 0 1-.33-.15.73.73 0 0 1-.22-.24.71.71 0 0 1-.09-.36h.5c0 .07.02.14.04.19.03.05.06.1.1.13l.15.07.2.02h.02c.07 0 .14-.01.2-.04.1-.04.16-.13.16-.24z"/></symbol><symbol id="icon-Logo5" viewBox="0 0 59 32"><path d="M15.31 25.36a.8.8 0 0 1 .21.55c0 .13-.02.26-.07.38s-.15.23-.26.32a1.52 1.52 0 0 1-.95.25h-1.67v-3.5h1.74c.3 0 .58.08.81.23a.81.81 0 0 1 .32.66c0 .19-.06.38-.2.53a.91.91 0 0 1-.49.27c.22.04.42.15.56.3zm-1.96-.53h.7c.16 0 .32-.03.44-.12a.38.38 0 0 0 .15-.34v-.03a.38.38 0 0 0-.03-.16.44.44 0 0 0-.11-.15.73.73 0 0 0-.47-.12h-.68v.92zm1.21 1.34c.06-.04.1-.1.13-.16.02-.05.04-.1.04-.17v-.05a.4.4 0 0 0-.04-.17.46.46 0 0 0-.13-.16.78.78 0 0 0-.43-.13h-.78v.96h.74a.8.8 0 0 0 .47-.12zm4.1.7-.91-1.38h-.35v1.37h-.78v-3.5h1.59c.35 0 .67.1.93.3.2.18.33.44.35.7s-.07.53-.24.74c-.19.2-.44.32-.71.36l.97 1.4h-.85zM17.4 25h.64c.45 0 .67-.17.67-.53v-.02a.49.49 0 0 0-.04-.2v.01a.51.51 0 0 0-.12-.18.74.74 0 0 0-.5-.14h-.65v1.07zm5.54 1.15h-1.56l-.28.7h-.82l1.43-3.46h.9l1.42 3.46h-.82l-.27-.7zm-.21-.53-.57-1.48-.57 1.48h1.14zm5.57 1.23h-.78l-1.74-2.38v2.38H25v-3.5h.78l1.74 2.4v-2.4h.78v3.5zm4.44-.84c-.17.27-.41.49-.7.62a2.5 2.5 0 0 1-1.1.22h-1.38v-3.5H31c.37 0 .72.08 1.04.22h-.02c.3.13.55.34.7.6a1.87 1.87 0 0 1 0 1.85zm-.9-.08c.22-.22.35-.51.35-.84 0-.32-.13-.62-.34-.83a1.44 1.44 0 0 0-.98-.3h-.54v2.27h.64c.33 0 .64-.11.88-.3zM23.44 3.87s10.03 3.4 9.82 8.35v8.35s-10.03-3.42-9.82-8.35V3.87zM42.19 18.6a14.7 14.7 0 0 1 6.38-2.11v-2.62a12.87 12.87 0 0 0-6.38 4.73z"/><path d="M41.05 19.4a13.25 13.25 0 0 1 7.52-6.07V5.8s-14.3 4.86-14 11.9v11.88s.65-.22 1.65-.62c0-.38 0-.77.04-1.15a12 12 0 0 1 4.8-8.41z"/><path d="M39.7 23.82c.08-.9.26-1.73.52-2.52l-.02.08a10.92 10.92 0 0 0-3.03 7.18c1.2-.51 2.1-.95 2.98-1.41l-.23.1a10.83 10.83 0 0 1-.22-3.48v.05zm.56.04a10.23 10.23 0 0 0 .2 3.19l-.02-.07c3.9-2.1 8.3-5.36 8.13-9.29v-.34c-2.8.28-5.4 1.38-7.44 3.12a10.5 10.5 0 0 0-.86 3.35v.04z"/></symbol><symbol id="icon-facebook" viewBox="0 0 32 32"><path fill="#f4f4fd" d="M21.33 5.31h2.92V.23A36.55 36.55 0 0 0 20.12 0H20c-4.2 0-7.09 2.65-7.09 7.52V12H8.25v5.69h4.65V32h5.7V17.69h4.46l.7-5.69H18.6V8.08c0-1.64.45-2.77 2.74-2.77z" style="fill:var(--color4, #f4f4fd)"/></symbol><symbol id="icon-instagram" viewBox="0 0 32 32"><path fill="#f4f4fd" d="M31.97 9.4c-.08-1.7-.35-2.86-.75-3.87a7.84 7.84 0 0 0-1.84-2.84A7.9 7.9 0 0 0 26.6.86l-.06-.02A11.7 11.7 0 0 0 22.66.1C20.95.02 20.4 0 16.06 0c-4.35 0-4.89.02-6.6.1-1.7.07-2.86.34-3.88.74a7.84 7.84 0 0 0-2.83 1.85A7.89 7.89 0 0 0 .91 5.47l-.02.05C.5 6.54.23 7.7.16 9.4c-.08 1.71-.1 2.26-.1 6.6 0 4.35.02 4.9.09 6.6.07 1.7.35 2.87.74 3.88a7.89 7.89 0 0 0 1.85 2.84c.8.81 1.77 1.44 2.84 1.84 1.02.4 2.18.67 3.88.75 1.7.07 2.25.09 6.6.09 4.34 0 4.88-.02 6.59-.1 1.7-.07 2.87-.34 3.88-.74a8.23 8.23 0 0 0 4.66-4.63l.02-.05c.4-1.02.67-2.18.75-3.88.07-1.7.09-2.25.09-6.6 0-4.34 0-4.89-.08-6.6zm-2.88 13.07a8.75 8.75 0 0 1-.55 2.97 5.34 5.34 0 0 1-3 3.03l-.04.01c-.56.22-1.41.48-2.97.55-1.69.08-2.2.1-6.46.1s-4.79-.03-6.47-.1a8.71 8.71 0 0 1-2.97-.55 4.95 4.95 0 0 1-1.83-1.2 5 5 0 0 1-1.19-1.8l-.01-.03a8.8 8.8 0 0 1-.55-2.97c-.07-1.69-.1-2.2-.1-6.46 0-4.27.03-4.79.1-6.47.07-1.56.33-2.4.55-2.97.26-.7.66-1.32 1.2-1.84a4.96 4.96 0 0 1 1.84-1.19A8.78 8.78 0 0 1 9.61 3c1.69-.07 2.2-.1 6.46-.1 4.28 0 4.78.03 6.47.1 1.56.07 2.4.33 2.96.55.7.26 1.33.66 1.84 1.2.53.51.94 1.14 1.2 1.83.22.56.48 1.41.55 2.97.07 1.69.09 2.2.09 6.47s-.02 4.77-.1 6.45z" style="fill:var(--color4, #f4f4fd)"/><path fill="#f4f4fd" d="M16.06 7.78a8.22 8.22 0 0 0-.01 16.44 8.22 8.22 0 0 0 .02-16.44h-.01zm0 13.56a5.33 5.33 0 1 1 0-10.67 5.33 5.33 0 1 1 0 10.67zM26.52 7.46a1.92 1.92 0 0 1-3.84 0 1.92 1.92 0 0 1 3.84 0z" style="fill:var(--color4, #f4f4fd)"/></symbol><symbol id="icon-linkedin" viewBox="0 0 32 32"><path fill="#f4f4fd" d="M32 32V20.26c0-5.74-1.24-10.16-7.95-10.16-3.22 0-5.39 1.77-6.27 3.45h-.1v-2.92h-6.36V32h6.63V21.42c0-2.78.53-5.48 3.97-5.48 3.4 0 3.45 3.18 3.45 5.66V32H32zM.52 10.64h6.63V32H.53V10.64zM3.84 0C1.72 0 0 1.72 0 3.84s1.72 3.88 3.84 3.88S7.7 5.96 7.7 3.84 5.96 0 3.84 0z" style="fill:var(--color4, #f4f4fd)"/></symbol><symbol id="icon-twitter" viewBox="0 0 32 32"><path fill="#f4f4fd" d="M32 6.08c-1.1.5-2.38.86-3.71 1.03h-.07a6.56 6.56 0 0 0 2.87-3.58l.02-.04c-1.2.72-2.6 1.27-4.08 1.57l-.08.02A6.54 6.54 0 0 0 15.6 9.56c0 .52.04 1.02.15 1.5a18.55 18.55 0 0 1-13.5-6.83l-.02-.04a6.56 6.56 0 0 0 2 8.75l.01.02a6.46 6.46 0 0 1-3-.82l.04.02v.07a6.6 6.6 0 0 0 5.21 6.44h.05a6.4 6.4 0 0 1-1.67.22H4.7c-.4 0-.8-.04-1.17-.12h.03a6.64 6.64 0 0 0 6.13 4.58 13.1 13.1 0 0 1-8.12 2.8h-.01c-.54 0-1.05-.03-1.57-.1A18.3 18.3 0 0 0 10 29h.07c12.07 0 18.67-10 18.67-18.67 0-.29-.01-.57-.03-.85 1.3-.93 2.4-2.06 3.26-3.36l.03-.04z" style="fill:var(--color4, #f4f4fd)"/></symbol>
<symbol id="icon-modal-close" viewBox="0 0 32 32">
<path d="M32 3.223l-3.223-3.223-12.777 12.777-12.777-12.777-3.223 3.223 12.777 12.777-12.777 12.777 3.223 3.223 12.777-12.777 12.777 12.777 3.223-3.223-12.777-12.777 12.777-12.777z"></path>
</symbol>
<symbol id="icon-done" viewBox="0 0 32 32">
<path fill="#F4F4FD"  d="M27.026 4.016c0.553-0.529 1.289-0.822 2.052-0.816s1.495 0.31 2.040 0.847c0.545 0.538 0.861 1.267 0.881 2.034s-0.257 1.513-0.773 2.078l-15.663 19.694c-0.269 0.292-0.594 0.526-0.956 0.688s-0.752 0.25-1.147 0.257c-0.396 0.007-0.789-0.066-1.156-0.214s-0.701-0.371-0.98-0.652l-10.387-10.443c-0.289-0.271-0.521-0.598-0.682-0.961s-0.247-0.755-0.254-1.152 0.066-0.792 0.214-1.161c0.148-0.369 0.368-0.703 0.648-0.984s0.613-0.503 0.979-0.652 0.759-0.222 1.155-0.215c0.395 0.007 0.785 0.094 1.146 0.256s0.686 0.395 0.956 0.686l8.22 8.26 13.633-17.464c0.025-0.030 0.051-0.059 0.078-0.087h-0.004z"></path>
</symbol>
<symbol id="icon-subscribe-telegram" viewBox="0 0 32 32">
<path fill="#fff" style="fill: var(--color2, #fff)" d="M32 2.667l-32 15 10.227 3.156 15.773-12.323-11.998 13.488 0.010 0.003-0.012-0.003v7.345l5.735-5.576 7.265 2.242 5-23.333z"></path>
</symbol>
<symbol id="icon-phone" viewBox="0 0 24 32">
<path d="M19.635 18.487l-2.451-0.28c-0.067-0.008-0.145-0.013-0.223-0.013-0.531 0-1.012 0.215-1.36 0.564l-1.775 1.775c-2.752-1.42-4.94-3.607-6.322-6.278l-0.038-0.081 1.787-1.785c0.347-0.347 0.562-0.827 0.562-1.358 0-0.079-0.005-0.156-0.014-0.233l0.001 0.009-0.28-2.432c-0.115-0.966-0.93-1.708-1.918-1.708-0.001 0-0.002 0-0.002 0h-1.669c-1.091 0-1.997 0.907-1.929 1.997 0.511 8.24 7.101 14.821 15.332 15.333 1.091 0.067 1.997-0.84 1.997-1.931v-1.669c0-0.003 0-0.007 0-0.011 0-0.981-0.739-1.789-1.69-1.899l-0.009-0.001z"></path>
</symbol>
<symbol id="icon-email" viewBox="0 0 24 32">
<path d="M20 8h-16c-1.1 0-1.989 0.9-1.989 2l-0.011 12c0 1.1 0.9 2 2 2h16c1.1 0 2-0.9 2-2v-12c0-1.1-0.9-2-2-2zM19.6 12.251l-7.069 4.419c-0.151 0.094-0.334 0.15-0.531 0.15s-0.38-0.056-0.535-0.153l0.004 0.002-7.069-4.419c-0.252-0.15-0.418-0.422-0.418-0.731 0-0.469 0.38-0.849 0.849-0.849 0.174 0 0.337 0.053 0.471 0.143l6.697 4.187 6.7-4.191c0.132-0.088 0.294-0.141 0.468-0.141 0.469 0 0.849 0.38 0.849 0.849 0 0.31-0.166 0.581-0.414 0.729l-0.004 0.002z"></path>
</symbol>
<symbol id="icon-person-name" viewBox="0 0 32 32">
<path d="M16 16c2.947 0 5.333-2.387 5.333-5.333s-2.387-5.333-5.333-5.333c-2.947 0-5.333 2.387-5.333 5.333s2.387 5.333 5.333 5.333zM16 18.667c-3.56 0-10.667 1.787-10.667 5.333v1.333c0 0.733 0.6 1.333 1.333 1.333h18.667c0.733 0 1.333-0.6 1.333-1.333v-1.333c0-3.547-7.107-5.333-10.667-5.333z"></path>
</symbol>
<symbol id="icon-menu-burger" viewBox="0 0 47 32">
<path d="M0.892 0.115c-0.236 0.106-0.436 0.252-0.599 0.432l-0.001 0.001-0.291 0.324v2.483l0.332 0.332c0.636 0.636-1.54 0.583 23.293 0.56l22.106-0.019 0.407-0.225 0.407-0.227v-3.375l-0.806-0.401-22.269 0.003c-18.902 0.003-22.316 0.020-22.579 0.112zM1.068 13.575c-0.359 0.109-0.742 0.384-0.909 0.653-0.141 0.23-0.159 0.384-0.159 1.412 0 1.004 0.020 1.187 0.151 1.401 0.217 0.355 0.735 0.628 1.364 0.72 0.742 0.108 43.081 0.108 43.821 0 0.295-0.042 0.679-0.156 0.854-0.252l0.316-0.175v-3.408l-0.698-0.39-22.263-0.013c-12.246-0.007-22.361 0.016-22.477 0.051zM1.219 27.081c-0.394 0.078-0.73 0.283-0.972 0.571l-0.002 0.003-0.244 0.279v2.497l0.332 0.332c0.636 0.634-1.54 0.582 23.293 0.56 20.793-0.019 22.122-0.028 22.378-0.154 0.573-0.285 0.543-0.17 0.543-2.022v-1.673l-0.892-0.438-22.071-0.012c-12.748-0.007-22.193 0.016-22.364 0.057z"></path>
</symbol>

</defs></svg>